<?xml version="1.0" encoding="UTF-8" standalone="no"?><!DOCTYPE svg PUBLIC "-//W3C//DTD SVG 1.1//EN" "http://www.w3.org/Graphics/SVG/1.1/DTD/svg11.dtd"><svg width="100%" height="100%" viewBox="0 0 260 142" version="1.1" xmlns="http://www.w3.org/2000/svg" xmlns:xlink="http://www.w3.org/1999/xlink" xml:space="preserve" xmlns:serif="http://www.serif.com/" style="fill-rule:evenodd;clip-rule:evenodd;stroke-linecap:round;stroke-linejoin:round;stroke-miterlimit:1.5;"><rect x="0" y="0" width="260" height="142" style="fill:#0d1117;stroke:#30363d;stroke-width:7.42px;"/><g transform="matrix(0.86423,0,0,0.86423,-123.177,53.9299)"><g transform="matrix(0.835127,0,0,1,29.1876,0)"><text x="177.031px" y="34.572px" style="font-family:'Arial-BoldItalicMT', 'Arial', sans-serif;font-weight:700;font-style:italic;font-size:13.017px;fill:#f0f6fc;stroke:#30363d;stroke-width:0.61px;stroke-linecap:butt;stroke-miterlimit:2;">ASP<tspan x="201.788px 205.404px " y="34.572px 34.572px ">.N</tspan>ET Core MVC • EF Core • SQL<tspan x="397.224px 400.841px " y="34.572px 34.572px "> S</tspan>erver</text></g><g transform="matrix(0.835127,0,0,1,29.1876,0)"><text x="177.031px" y="48.016px" style="font-family:'Arial-BoldItalicMT', 'Arial', sans-serif;font-weight:700;font-style:italic;font-size:13.017px;fill:#f0f6fc;stroke:#30363d;stroke-width:0.61px;stroke-linecap:butt;stroke-miterlimit:2;">Identity Razor V<tspan x="274.82px 278.437px " y="48.016px 48.016px ">ie</tspan>ws • CRUD • Dependency</text></g><g transform="matrix(0.835127,0,0,1,29.1876,0)"><text x="177.031px" y="61.459px" style="font-family:'Arial-BoldItalicMT', 'Arial', sans-serif;font-weight:700;font-style:italic;font-size:13.017px;fill:#f0f6fc;stroke:#30363d;stroke-width:0.61px;stroke-linecap:butt;stroke-miterlimit:2;">Injection • Repository Pattern • <tspan x="370.01px 379.411px " y="61.459px 61.459px ">Au</tspan>thentication</text></g><g transform="matrix(0.835127,0,0,1,29.1876,0)"><g transform="matrix(13.0174,0,0,13.0174,381.343,74.902)"></g><text x="177.031px" y="74.902px" style="font-family:'Arial-BoldItalicMT', 'Arial', sans-serif;font-weight:700;font-style:italic;font-size:13.017px;fill:#f0f6fc;stroke:#30363d;stroke-width:0.61px;stroke-linecap:butt;stroke-miterlimit:2;">Authorization • MVC <tspan x="304.663px 314.063px " y="74.902px 74.902px ">Ar</tspan>chitecture</text></g></g><path d="M246.652,6.475c-0.38,-0.064 -0.688,0.197 -0.688,0.583c-0,0.386 0.308,0.75 0.688,0.814l3.064,0.514l-7.023,5.955c-0.269,0.227 -0.269,0.67 -0,0.988c0.269,0.317 0.704,0.391 0.973,0.163l7.024,-5.955l0,3.112c0,0.386 0.309,0.75 0.689,0.814c0.189,0.032 0.361,-0.018 0.486,-0.123c0.124,-0.106 0.201,-0.267 0.201,-0.46l-0.001,-4.798c-0,-0.386 -0.308,-0.75 -0.688,-0.814l-4.725,-0.793Z" style="fill:#f0f6fc;fill-rule:nonzero;stroke:#30363d;stroke-width:0.61px;stroke-linecap:butt;stroke-miterlimit:2;"/><g transform="matrix(1,0,0,0.838058,0,1.09454)"><g transform="matrix(25.4023,0,0,25.4023,151.138,29.2478)"></g><text x="11.438px" y="29.248px" style="font-family:'Arial-BoldItalicMT', 'Arial', sans-serif;font-weight:700;font-style:italic;font-size:25.402px;fill:#f0f6fc;stroke:#30363d;stroke-width:0.45px;stroke-linecap:butt;stroke-miterlimit:2;">RunGroops</text></g><path d="M37.127,122.557l200.244,-0" style="fill:none;stroke:#f0f6fc;stroke-width:2.5px;"/><g transform="matrix(1,0,0,0.936671,1.38778e-17,0.506988)"><g transform="matrix(16.2342,0,0,16.2342,137.451,45.2876)"></g><text x="12.008px" y="45.288px" style="font-family:'ArialMT', 'Arial', sans-serif;font-size:16.234px;fill:#f0f6fc;">Social Media <tspan x="108.565px 119.394px " y="45.288px 45.288px ">Ap</tspan>p</text></g><path d="M19.586,48.145l134.808,-0" style="fill:none;stroke:#f0f6fc;stroke-width:2.5px;"/></svg>